<svg xmlns="http://www.w3.org/2000/svg" width="512" height="512" viewBox="0 0 512 512">
<defs>
<linearGradient id="g" x1="0%" y1="0%" x2="100%" y2="100%">
<stop offset="0%" stop-color="#00B7FF"/>
<stop offset="50%" stop-color="#6C4DFF"/>
<stop offset="100%" stop-color="#FF2DAA"/>
</linearGradient>
</defs>
<rect width="512" height="512" rx="96" fill="#050B2E"/>
<path d="M160 256c0-53 43-96 96-96 38 0 70 20 96 64 26-44 58-64 96-64 53 0 96 43 96 96s-43 96-96 96c-38 0-70-20-96-64-26 44-58 64-96 64-53 0-96-43-96-96z"
stroke="url(#g)" stroke-width="24" fill="none" transform="translate(-96,0)"/>
<text x="256" y="440" text-anchor="middle" fill="white" font-size="42" font-family="Arial">AllOneHub</text>
</svg>